<mxfile host="app.diagrams.net" agent="Mozilla/5.0 (Windows NT 10.0; Win64; x64) AppleWebKit/537.36 (KHTML, like Gecko) Chrome/133.0.0.0 Safari/537.36" version="26.0.16">
  <diagram name="第 1 页" id="OZodCYnjfzVSxdGQ9F1W">
    <mxGraphModel dx="1050" dy="1691" grid="1" gridSize="10" guides="1" tooltips="1" connect="1" arrows="1" fold="1" page="1" pageScale="1" pageWidth="827" pageHeight="1169" math="1" shadow="0">
      <root>
        <mxCell id="0" />
        <mxCell id="1" parent="0" />
        <mxCell id="BH4oJEIWNUZMl2tsmwMQ-1" value="&lt;font style=&quot;font-size: 18px;&quot; face=&quot;Times New Roman&quot;&gt;Input&lt;/font&gt;" style="text;html=1;align=center;verticalAlign=middle;whiteSpace=wrap;rounded=0;" vertex="1" parent="1">
          <mxGeometry x="370" y="340" width="60" height="30" as="geometry" />
        </mxCell>
        <mxCell id="BH4oJEIWNUZMl2tsmwMQ-2" value="" style="rounded=1;whiteSpace=wrap;html=1;fillColor=#f8cecc;strokeColor=#b85450;" vertex="1" parent="1">
          <mxGeometry x="275" y="240" width="250" height="80" as="geometry" />
        </mxCell>
        <mxCell id="BH4oJEIWNUZMl2tsmwMQ-3" value="&lt;font style=&quot;font-size: 18px;&quot; face=&quot;Times New Roman&quot;&gt;Embedings&lt;/font&gt;" style="text;html=1;align=center;verticalAlign=middle;whiteSpace=wrap;rounded=0;" vertex="1" parent="1">
          <mxGeometry x="370" y="240" width="60" height="30" as="geometry" />
        </mxCell>
        <mxCell id="BH4oJEIWNUZMl2tsmwMQ-4" value="" style="rounded=1;whiteSpace=wrap;html=1;fillColor=#FF9999;strokeColor=#9673a6;" vertex="1" parent="1">
          <mxGeometry x="280" y="270" width="60" height="40" as="geometry" />
        </mxCell>
        <mxCell id="BH4oJEIWNUZMl2tsmwMQ-5" value="&lt;font style=&quot;font-size: 18px;&quot; face=&quot;Times New Roman&quot;&gt;Word&lt;/font&gt;" style="text;html=1;align=center;verticalAlign=middle;whiteSpace=wrap;rounded=0;" vertex="1" parent="1">
          <mxGeometry x="275" y="275" width="60" height="30" as="geometry" />
        </mxCell>
        <mxCell id="BH4oJEIWNUZMl2tsmwMQ-6" value="" style="rounded=1;whiteSpace=wrap;html=1;fillColor=#FF9999;" vertex="1" parent="1">
          <mxGeometry x="370" y="270" width="60" height="40" as="geometry" />
        </mxCell>
        <mxCell id="BH4oJEIWNUZMl2tsmwMQ-7" value="" style="rounded=1;whiteSpace=wrap;html=1;fillColor=#FF9999;" vertex="1" parent="1">
          <mxGeometry x="460" y="270" width="60" height="40" as="geometry" />
        </mxCell>
        <mxCell id="BH4oJEIWNUZMl2tsmwMQ-8" value="&lt;font style=&quot;font-size: 18px;&quot; face=&quot;Times New Roman&quot;&gt;Position&lt;/font&gt;" style="text;html=1;align=center;verticalAlign=middle;whiteSpace=wrap;rounded=0;" vertex="1" parent="1">
          <mxGeometry x="370" y="275" width="60" height="30" as="geometry" />
        </mxCell>
        <mxCell id="BH4oJEIWNUZMl2tsmwMQ-9" value="&lt;font style=&quot;font-size: 18px;&quot; face=&quot;Times New Roman&quot;&gt;Type&lt;/font&gt;" style="text;html=1;align=center;verticalAlign=middle;whiteSpace=wrap;rounded=0;" vertex="1" parent="1">
          <mxGeometry x="458" y="275" width="55" height="30" as="geometry" />
        </mxCell>
        <mxCell id="BH4oJEIWNUZMl2tsmwMQ-12" value="&lt;div&gt;&lt;span style=&quot;font-size: 14pt; font-family: &amp;quot;Times New Roman&amp;quot;;&quot;&gt;Fourier&lt;/span&gt;&lt;/div&gt;" style="text;html=1;align=center;verticalAlign=middle;whiteSpace=wrap;rounded=0;" vertex="1" parent="1">
          <mxGeometry x="365" y="155" width="60" height="30" as="geometry" />
        </mxCell>
        <mxCell id="BH4oJEIWNUZMl2tsmwMQ-14" value="&lt;div&gt;&lt;span style=&quot;font-size: 14pt; font-family: &amp;quot;Times New Roman&amp;quot;;&quot;&gt;Add &amp;amp; Normalize&lt;/span&gt;&lt;/div&gt;" style="text;html=1;align=center;verticalAlign=middle;whiteSpace=wrap;rounded=0;" vertex="1" parent="1">
          <mxGeometry x="320" y="105" width="160" height="30" as="geometry" />
        </mxCell>
        <mxCell id="BH4oJEIWNUZMl2tsmwMQ-19" value="&lt;div&gt;&lt;span style=&quot;font-size: 14pt; font-family: &amp;quot;Times New Roman&amp;quot;;&quot;&gt;Feed Forward&lt;/span&gt;&lt;/div&gt;" style="text;html=1;align=center;verticalAlign=middle;whiteSpace=wrap;rounded=0;" vertex="1" parent="1">
          <mxGeometry x="342" y="45" width="116" height="30" as="geometry" />
        </mxCell>
        <mxCell id="BH4oJEIWNUZMl2tsmwMQ-20" value="" style="group" vertex="1" connectable="0" parent="1">
          <mxGeometry x="272" y="-22" width="250" height="230" as="geometry" />
        </mxCell>
        <mxCell id="BH4oJEIWNUZMl2tsmwMQ-10" value="" style="rounded=1;whiteSpace=wrap;html=1;fillColor=#f5f5f5;fontColor=#333333;strokeColor=#666666;" vertex="1" parent="BH4oJEIWNUZMl2tsmwMQ-20">
          <mxGeometry width="250" height="230" as="geometry" />
        </mxCell>
        <mxCell id="BH4oJEIWNUZMl2tsmwMQ-11" value="" style="rounded=1;whiteSpace=wrap;html=1;fillColor=#fff2cc;strokeColor=#d6b656;" vertex="1" parent="BH4oJEIWNUZMl2tsmwMQ-20">
          <mxGeometry x="21" y="172" width="206" height="40" as="geometry" />
        </mxCell>
        <mxCell id="BH4oJEIWNUZMl2tsmwMQ-13" value="" style="rounded=1;whiteSpace=wrap;html=1;fillColor=#FFB366;" vertex="1" parent="BH4oJEIWNUZMl2tsmwMQ-20">
          <mxGeometry x="21" y="122" width="206" height="40" as="geometry" />
        </mxCell>
        <mxCell id="BH4oJEIWNUZMl2tsmwMQ-16" value="" style="rounded=1;whiteSpace=wrap;html=1;fillColor=#dae8fc;strokeColor=#6c8ebf;" vertex="1" parent="BH4oJEIWNUZMl2tsmwMQ-20">
          <mxGeometry x="21" y="62" width="206" height="40" as="geometry" />
        </mxCell>
        <mxCell id="BH4oJEIWNUZMl2tsmwMQ-17" value="" style="rounded=1;whiteSpace=wrap;html=1;fillColor=#FFB366;" vertex="1" parent="BH4oJEIWNUZMl2tsmwMQ-20">
          <mxGeometry x="21" y="12" width="206" height="40" as="geometry" />
        </mxCell>
        <mxCell id="BH4oJEIWNUZMl2tsmwMQ-18" value="&lt;div&gt;&lt;span style=&quot;font-size: 14pt; font-family: &amp;quot;Times New Roman&amp;quot;;&quot;&gt;Add &amp;amp; Normalize&lt;/span&gt;&lt;/div&gt;" style="text;html=1;align=center;verticalAlign=middle;whiteSpace=wrap;rounded=0;" vertex="1" parent="BH4oJEIWNUZMl2tsmwMQ-20">
          <mxGeometry x="48" y="17" width="160" height="30" as="geometry" />
        </mxCell>
        <mxCell id="BH4oJEIWNUZMl2tsmwMQ-29" value="&lt;div&gt;&lt;span style=&quot;font-size: 14pt; font-family: &amp;quot;Times New Roman&amp;quot;;&quot;&gt;Add &amp;amp; Normalize&lt;/span&gt;&lt;/div&gt;" style="text;html=1;align=center;verticalAlign=middle;whiteSpace=wrap;rounded=0;" vertex="1" parent="BH4oJEIWNUZMl2tsmwMQ-20">
          <mxGeometry x="43" y="127" width="160" height="30" as="geometry" />
        </mxCell>
        <mxCell id="BH4oJEIWNUZMl2tsmwMQ-31" value="&lt;div&gt;&lt;span style=&quot;font-size: 14pt; font-family: &amp;quot;Times New Roman&amp;quot;;&quot;&gt;Feed Forward&lt;/span&gt;&lt;/div&gt;" style="text;html=1;align=center;verticalAlign=middle;whiteSpace=wrap;rounded=0;" vertex="1" parent="BH4oJEIWNUZMl2tsmwMQ-20">
          <mxGeometry x="64.5" y="67" width="117" height="30" as="geometry" />
        </mxCell>
        <mxCell id="BH4oJEIWNUZMl2tsmwMQ-45" value="" style="endArrow=none;html=1;rounded=0;exitX=0.5;exitY=0;exitDx=0;exitDy=0;entryX=0.5;entryY=1;entryDx=0;entryDy=0;" edge="1" parent="BH4oJEIWNUZMl2tsmwMQ-20" source="BH4oJEIWNUZMl2tsmwMQ-11" target="BH4oJEIWNUZMl2tsmwMQ-13">
          <mxGeometry width="50" height="50" relative="1" as="geometry">
            <mxPoint x="158" y="212" as="sourcePoint" />
            <mxPoint x="208" y="162" as="targetPoint" />
          </mxGeometry>
        </mxCell>
        <mxCell id="BH4oJEIWNUZMl2tsmwMQ-30" value="&lt;div&gt;&lt;span style=&quot;font-size: 14pt; font-family: &amp;quot;Times New Roman&amp;quot;;&quot;&gt;Fourier&lt;/span&gt;&lt;/div&gt;" style="text;html=1;align=center;verticalAlign=middle;whiteSpace=wrap;rounded=0;" vertex="1" parent="BH4oJEIWNUZMl2tsmwMQ-20">
          <mxGeometry x="93" y="177" width="60" height="30" as="geometry" />
        </mxCell>
        <mxCell id="BH4oJEIWNUZMl2tsmwMQ-46" value="" style="endArrow=classic;html=1;rounded=0;exitX=0.5;exitY=0;exitDx=0;exitDy=0;entryX=0.5;entryY=1;entryDx=0;entryDy=0;" edge="1" parent="BH4oJEIWNUZMl2tsmwMQ-20" source="BH4oJEIWNUZMl2tsmwMQ-13" target="BH4oJEIWNUZMl2tsmwMQ-16">
          <mxGeometry width="50" height="50" relative="1" as="geometry">
            <mxPoint x="158" y="212" as="sourcePoint" />
            <mxPoint x="208" y="162" as="targetPoint" />
          </mxGeometry>
        </mxCell>
        <mxCell id="BH4oJEIWNUZMl2tsmwMQ-48" value="" style="endArrow=none;html=1;rounded=0;exitX=0.5;exitY=0;exitDx=0;exitDy=0;entryX=0.5;entryY=1;entryDx=0;entryDy=0;" edge="1" parent="BH4oJEIWNUZMl2tsmwMQ-20" source="BH4oJEIWNUZMl2tsmwMQ-16" target="BH4oJEIWNUZMl2tsmwMQ-17">
          <mxGeometry width="50" height="50" relative="1" as="geometry">
            <mxPoint x="158" y="212" as="sourcePoint" />
            <mxPoint x="208" y="162" as="targetPoint" />
          </mxGeometry>
        </mxCell>
        <mxCell id="BH4oJEIWNUZMl2tsmwMQ-21" value="" style="group" vertex="1" connectable="0" parent="1">
          <mxGeometry x="273" y="-270" width="250" height="230" as="geometry" />
        </mxCell>
        <mxCell id="BH4oJEIWNUZMl2tsmwMQ-22" value="" style="rounded=1;whiteSpace=wrap;html=1;fillColor=#f5f5f5;fontColor=#333333;strokeColor=#666666;" vertex="1" parent="BH4oJEIWNUZMl2tsmwMQ-21">
          <mxGeometry width="250" height="230" as="geometry" />
        </mxCell>
        <mxCell id="BH4oJEIWNUZMl2tsmwMQ-23" value="" style="rounded=1;whiteSpace=wrap;html=1;fillColor=#f8cecc;strokeColor=#b85450;" vertex="1" parent="BH4oJEIWNUZMl2tsmwMQ-21">
          <mxGeometry x="21" y="172" width="206" height="40" as="geometry" />
        </mxCell>
        <mxCell id="BH4oJEIWNUZMl2tsmwMQ-24" value="" style="rounded=1;whiteSpace=wrap;html=1;fillColor=#FFB366;" vertex="1" parent="BH4oJEIWNUZMl2tsmwMQ-21">
          <mxGeometry x="21" y="122" width="206" height="40" as="geometry" />
        </mxCell>
        <mxCell id="BH4oJEIWNUZMl2tsmwMQ-25" value="" style="rounded=1;whiteSpace=wrap;html=1;fillColor=#dae8fc;strokeColor=#6c8ebf;" vertex="1" parent="BH4oJEIWNUZMl2tsmwMQ-21">
          <mxGeometry x="21" y="62" width="206" height="40" as="geometry" />
        </mxCell>
        <mxCell id="BH4oJEIWNUZMl2tsmwMQ-26" value="" style="rounded=1;whiteSpace=wrap;html=1;fillColor=#FFB366;" vertex="1" parent="BH4oJEIWNUZMl2tsmwMQ-21">
          <mxGeometry x="21" y="12" width="206" height="40" as="geometry" />
        </mxCell>
        <mxCell id="BH4oJEIWNUZMl2tsmwMQ-27" value="&lt;div&gt;&lt;span style=&quot;font-size: 14pt; font-family: &amp;quot;Times New Roman&amp;quot;;&quot;&gt;Add &amp;amp; Normalize&lt;/span&gt;&lt;/div&gt;" style="text;html=1;align=center;verticalAlign=middle;whiteSpace=wrap;rounded=0;" vertex="1" parent="BH4oJEIWNUZMl2tsmwMQ-21">
          <mxGeometry x="48" y="17" width="160" height="30" as="geometry" />
        </mxCell>
        <mxCell id="BH4oJEIWNUZMl2tsmwMQ-28" value="&lt;div&gt;&lt;span style=&quot;font-size: 14pt; font-family: &amp;quot;Times New Roman&amp;quot;;&quot;&gt;Add &amp;amp; Normalize&lt;/span&gt;&lt;/div&gt;" style="text;html=1;align=center;verticalAlign=middle;whiteSpace=wrap;rounded=0;" vertex="1" parent="BH4oJEIWNUZMl2tsmwMQ-21">
          <mxGeometry x="38" y="127" width="160" height="30" as="geometry" />
        </mxCell>
        <mxCell id="BH4oJEIWNUZMl2tsmwMQ-32" value="&lt;font style=&quot;font-size: 18px;&quot; face=&quot;Times New Roman&quot;&gt;MHSA&lt;/font&gt;" style="text;html=1;align=center;verticalAlign=middle;whiteSpace=wrap;rounded=0;" vertex="1" parent="BH4oJEIWNUZMl2tsmwMQ-21">
          <mxGeometry x="93" y="177" width="60" height="30" as="geometry" />
        </mxCell>
        <mxCell id="BH4oJEIWNUZMl2tsmwMQ-33" value="&lt;div&gt;&lt;span style=&quot;font-size: 14pt; font-family: &amp;quot;Times New Roman&amp;quot;;&quot;&gt;Feed Forward&lt;/span&gt;&lt;/div&gt;" style="text;html=1;align=center;verticalAlign=middle;whiteSpace=wrap;rounded=0;" vertex="1" parent="BH4oJEIWNUZMl2tsmwMQ-21">
          <mxGeometry x="64.5" y="67" width="117" height="30" as="geometry" />
        </mxCell>
        <mxCell id="BH4oJEIWNUZMl2tsmwMQ-50" value="" style="endArrow=none;html=1;rounded=0;exitX=0.5;exitY=0;exitDx=0;exitDy=0;entryX=0.5;entryY=1;entryDx=0;entryDy=0;" edge="1" parent="BH4oJEIWNUZMl2tsmwMQ-21" source="BH4oJEIWNUZMl2tsmwMQ-23" target="BH4oJEIWNUZMl2tsmwMQ-24">
          <mxGeometry width="50" height="50" relative="1" as="geometry">
            <mxPoint x="157" y="260" as="sourcePoint" />
            <mxPoint x="207" y="210" as="targetPoint" />
          </mxGeometry>
        </mxCell>
        <mxCell id="BH4oJEIWNUZMl2tsmwMQ-51" value="" style="endArrow=classic;html=1;rounded=0;exitX=0.5;exitY=0;exitDx=0;exitDy=0;entryX=0.5;entryY=1;entryDx=0;entryDy=0;" edge="1" parent="BH4oJEIWNUZMl2tsmwMQ-21" source="BH4oJEIWNUZMl2tsmwMQ-24" target="BH4oJEIWNUZMl2tsmwMQ-25">
          <mxGeometry width="50" height="50" relative="1" as="geometry">
            <mxPoint x="157" y="260" as="sourcePoint" />
            <mxPoint x="207" y="210" as="targetPoint" />
          </mxGeometry>
        </mxCell>
        <mxCell id="BH4oJEIWNUZMl2tsmwMQ-52" value="" style="endArrow=none;html=1;rounded=0;exitX=0.5;exitY=0;exitDx=0;exitDy=0;entryX=0.5;entryY=1;entryDx=0;entryDy=0;" edge="1" parent="BH4oJEIWNUZMl2tsmwMQ-21" source="BH4oJEIWNUZMl2tsmwMQ-25" target="BH4oJEIWNUZMl2tsmwMQ-26">
          <mxGeometry width="50" height="50" relative="1" as="geometry">
            <mxPoint x="157" y="260" as="sourcePoint" />
            <mxPoint x="207" y="210" as="targetPoint" />
          </mxGeometry>
        </mxCell>
        <mxCell id="BH4oJEIWNUZMl2tsmwMQ-35" value="" style="endArrow=classic;html=1;rounded=0;exitX=0.5;exitY=0;exitDx=0;exitDy=0;entryX=0.5;entryY=1;entryDx=0;entryDy=0;" edge="1" parent="1" source="BH4oJEIWNUZMl2tsmwMQ-1" target="BH4oJEIWNUZMl2tsmwMQ-2">
          <mxGeometry width="50" height="50" relative="1" as="geometry">
            <mxPoint x="525" y="380" as="sourcePoint" />
            <mxPoint x="575" y="330" as="targetPoint" />
          </mxGeometry>
        </mxCell>
        <mxCell id="BH4oJEIWNUZMl2tsmwMQ-36" value="" style="shape=cross;whiteSpace=wrap;html=1;fillColor=#000000;size=0.179998779296875;" vertex="1" parent="1">
          <mxGeometry x="344" y="280" width="20" height="20" as="geometry" />
        </mxCell>
        <mxCell id="BH4oJEIWNUZMl2tsmwMQ-40" value="" style="shape=cross;whiteSpace=wrap;html=1;fillColor=#000000;size=0.179998779296875;" vertex="1" parent="1">
          <mxGeometry x="434" y="281" width="20" height="20" as="geometry" />
        </mxCell>
        <mxCell id="BH4oJEIWNUZMl2tsmwMQ-41" value="" style="endArrow=classic;html=1;rounded=0;entryX=0.5;entryY=1;entryDx=0;entryDy=0;" edge="1" parent="1" target="BH4oJEIWNUZMl2tsmwMQ-11">
          <mxGeometry width="50" height="50" relative="1" as="geometry">
            <mxPoint x="396" y="240" as="sourcePoint" />
            <mxPoint x="480" y="140" as="targetPoint" />
          </mxGeometry>
        </mxCell>
        <mxCell id="BH4oJEIWNUZMl2tsmwMQ-49" value="" style="endArrow=classic;html=1;rounded=0;exitX=0.5;exitY=0;exitDx=0;exitDy=0;" edge="1" parent="1" source="BH4oJEIWNUZMl2tsmwMQ-17">
          <mxGeometry width="50" height="50" relative="1" as="geometry">
            <mxPoint x="430" y="90" as="sourcePoint" />
            <mxPoint x="396" y="-60" as="targetPoint" />
          </mxGeometry>
        </mxCell>
        <mxCell id="BH4oJEIWNUZMl2tsmwMQ-53" value="" style="endArrow=classic;html=1;rounded=0;entryX=0;entryY=0.5;entryDx=0;entryDy=0;" edge="1" parent="1" target="BH4oJEIWNUZMl2tsmwMQ-13">
          <mxGeometry width="50" height="50" relative="1" as="geometry">
            <mxPoint x="395" y="220" as="sourcePoint" />
            <mxPoint x="485" y="40" as="targetPoint" />
            <Array as="points">
              <mxPoint x="280" y="220" />
              <mxPoint x="280" y="120" />
            </Array>
          </mxGeometry>
        </mxCell>
        <mxCell id="BH4oJEIWNUZMl2tsmwMQ-54" value="" style="endArrow=classic;html=1;rounded=0;" edge="1" parent="1">
          <mxGeometry width="50" height="50" relative="1" as="geometry">
            <mxPoint x="395" y="92" as="sourcePoint" />
            <mxPoint x="294" y="10" as="targetPoint" />
            <Array as="points">
              <mxPoint x="281" y="92" />
              <mxPoint x="281" y="10" />
            </Array>
          </mxGeometry>
        </mxCell>
        <mxCell id="BH4oJEIWNUZMl2tsmwMQ-55" value="" style="endArrow=classic;html=1;rounded=0;entryX=0;entryY=0.5;entryDx=0;entryDy=0;" edge="1" parent="1" target="BH4oJEIWNUZMl2tsmwMQ-24">
          <mxGeometry width="50" height="50" relative="1" as="geometry">
            <mxPoint x="396" y="-30" as="sourcePoint" />
            <mxPoint x="290" y="-128" as="targetPoint" />
            <Array as="points">
              <mxPoint x="280" y="-30" />
              <mxPoint x="280" y="-128" />
            </Array>
          </mxGeometry>
        </mxCell>
        <mxCell id="BH4oJEIWNUZMl2tsmwMQ-56" value="" style="endArrow=classic;html=1;rounded=0;entryX=0;entryY=0.5;entryDx=0;entryDy=0;" edge="1" parent="1">
          <mxGeometry width="50" height="50" relative="1" as="geometry">
            <mxPoint x="397" y="-158" as="sourcePoint" />
            <mxPoint x="294" y="-236" as="targetPoint" />
            <Array as="points">
              <mxPoint x="280" y="-158" />
              <mxPoint x="280" y="-236" />
            </Array>
          </mxGeometry>
        </mxCell>
        <mxCell id="BH4oJEIWNUZMl2tsmwMQ-57" value="" style="rounded=1;whiteSpace=wrap;html=1;fillColor=#d5e8d4;strokeColor=#82b366;" vertex="1" parent="1">
          <mxGeometry x="276" y="-340" width="245" height="50" as="geometry" />
        </mxCell>
        <mxCell id="BH4oJEIWNUZMl2tsmwMQ-58" value="&lt;div&gt;&lt;span style=&quot;font-size: 14pt; font-family: &amp;quot;Times New Roman&amp;quot;;&quot;&gt;Output Projection&lt;/span&gt;&lt;/div&gt;" style="text;html=1;align=center;verticalAlign=middle;whiteSpace=wrap;rounded=0;" vertex="1" parent="1">
          <mxGeometry x="320" y="-330" width="150" height="30" as="geometry" />
        </mxCell>
        <mxCell id="BH4oJEIWNUZMl2tsmwMQ-59" value="" style="endArrow=classic;html=1;rounded=0;exitX=0.5;exitY=0;exitDx=0;exitDy=0;entryX=0.5;entryY=1;entryDx=0;entryDy=0;" edge="1" parent="1" source="BH4oJEIWNUZMl2tsmwMQ-22" target="BH4oJEIWNUZMl2tsmwMQ-57">
          <mxGeometry width="50" height="50" relative="1" as="geometry">
            <mxPoint x="430" y="-110" as="sourcePoint" />
            <mxPoint x="480" y="-160" as="targetPoint" />
          </mxGeometry>
        </mxCell>
        <mxCell id="BH4oJEIWNUZMl2tsmwMQ-60" value="" style="endArrow=classic;html=1;rounded=0;exitX=0.5;exitY=0;exitDx=0;exitDy=0;" edge="1" parent="1" source="BH4oJEIWNUZMl2tsmwMQ-57">
          <mxGeometry width="50" height="50" relative="1" as="geometry">
            <mxPoint x="430" y="-310" as="sourcePoint" />
            <mxPoint x="399" y="-360" as="targetPoint" />
          </mxGeometry>
        </mxCell>
        <mxCell id="BH4oJEIWNUZMl2tsmwMQ-61" value="&lt;font style=&quot;font-size: 18px;&quot; face=&quot;Times New Roman&quot;&gt;Output&lt;/font&gt;" style="text;html=1;align=center;verticalAlign=middle;whiteSpace=wrap;rounded=0;" vertex="1" parent="1">
          <mxGeometry x="365" y="-390" width="60" height="30" as="geometry" />
        </mxCell>
        <mxCell id="BH4oJEIWNUZMl2tsmwMQ-62" value="&lt;font style=&quot;font-size: 18px;&quot; face=&quot;Times New Roman&quot;&gt;$$\times{N}$$&lt;/font&gt;" style="text;html=1;align=center;verticalAlign=middle;whiteSpace=wrap;rounded=0;" vertex="1" parent="1">
          <mxGeometry x="210" y="79" width="60" height="28" as="geometry" />
        </mxCell>
        <mxCell id="BH4oJEIWNUZMl2tsmwMQ-63" value="&lt;font style=&quot;font-size: 18px;&quot; face=&quot;Times New Roman&quot;&gt;$$\times{2}$$&lt;/font&gt;" style="text;html=1;align=center;verticalAlign=middle;whiteSpace=wrap;rounded=0;" vertex="1" parent="1">
          <mxGeometry x="210" y="-180" width="60" height="28" as="geometry" />
        </mxCell>
      </root>
    </mxGraphModel>
  </diagram>
</mxfile>
